<?xml version="1.0" encoding="UTF-8"?><svg data-name="Layer 1" viewBox="0 0 512 512" xmlns="http://www.w3.org/2000/svg"><path d="m418.62 357.5c-6.34-83.98-65.42-141.92-163.85-141.92s-157.64 61.54-163.46 145.55c-3.4 48.96 14.81 92.58 51.45 117.45 24.12 16.39 57.82 25.48 112.43 25.48s87.4-12 111.53-28.23c40.19-27 55.55-70.07 51.9-118.32z" fill="#ffc022" stroke-width="0"/><g stroke-width="0"><path d="m221.53 268.29c-23.99-62.09-76.38-104.32-96.52-110.62-7.6-2.39-17.14-2.62-21.44 4.37-10.86 17.62-24.77 74.21 5.98 154.5l111.98-48.25z" fill="#ffc022"/><path d="m164.62,241.16c4.98-4.17,7.41-8.25,1.94-16.69-8.47-13.1-23.7-28.39-29.62-33.08-9.7-7.7-17.2-10.28-20.08,2.1-5.34,22.89-4.92,53.97.81,71.11,2,6.05,8.21,9.25,13,5.08l33.95-28.52Z" fill="#ffd1d1"/></g><path d="m222.83,276.11c3.65,3.1,11.06,2.65,15.36-2.33,5.21-6.05,10.64-26.42,7.24-57.91-15.1.55-29.39,2.72-42.72,6.37,10.77,17.66,13.35,48.12,20.11,53.87Z" fill="#ff9b31" stroke-width="0"/><path d="m286.72,276.11c-3.65,3.1-11.06,2.65-15.36-2.33-5.21-6.05-10.64-26.42-7.24-57.91,15.1.55,29.39,2.72,42.72,6.37-10.77,17.66-13.35,48.12-20.11,53.87Z" fill="#ff9b31" stroke-width="0"/><path d="m306.19 225.02c26.13-40.13 62.67-67.1 77.83-71.92 7.5-2.39 16.23-2 20.5 5.01 10.74 17.62 19.82 71.92-1.36 147.94l-77.38-37.32-19.6-43.72z" fill="#ffc022" stroke-width="0"/><path d="m363.26 254.16c7.86 7.86 14.26 13.13 18.88 18.14 3.07 3.33 8.7 1.81 9.6-2.65 7.92-38.16 5.4-70.69 0-79.22-2.59-4.07-7.41-5.14-11.8-3.65-7.89 2.62-28 17.62-42.2 39.51-1.65 2.55-1.03 5.98 1.49 7.7 5.11 3.46 14.03 10.15 24.03 20.18z" fill="#ffd1d1" stroke-width="0"/><path d="m227.84 381.95c-0.16-9.96 14.13-14.71 27.62-14.94 13.52-0.23 28.07 4.17 28.23 14.13s-16.88 23.06-27.62 23.06-28.04-12.32-28.23-22.25z" stroke-width="0"/><g fill="none" stroke="#9e9e9e" stroke-linecap="round" stroke-miterlimit="10" stroke-width="9.7"><path d="m69.49 360.22c1.1 1.33 14.26 1.13 46.43 16.39"/><path d="m57.2,398.47s20.76-7.24,56.46-.91"/><path d="m76.31 428.97s8.86-4.46 40.97-7.28"/><path d="m438.67 348.84s-11.03 1.07-45.08 20.5"/><path d="m443.68 384.34s-16.46-1.16-51.9 6.37"/><path d="m437.31 418.49s-15.62-5.53-47.79-7.28"/></g><path d="m358.54,345.15c-1.1,17.82-12.16,27.62-24.74,27.62s-22.76-12.55-22.76-28,10.61-28.16,24.74-27.39c16.39.94,23.67,13.23,22.76,27.78Z" fill="#000200" stroke-width="0"/><path d="m196.57 343.34c2.52 18.14-5.11 29.2-17.75 31.75s-23.48-5.95-26.61-21.47c-3.17-15.55 2.91-30.14 17.27-32.24 16.65-2.43 25.03 7.11 27.1 21.96z" fill="#000200" stroke-width="0"/><path d="m193.3 405.91c-8.31 5.4 1.52 17.91 7.28 22.15s16.1 9.44 31.27 7.89c17.91-1.81 23.06-15.17 23.06-15.17s6.37 14.87 28.52 15.49c22.47 0.61 29.43-11.54 32.47-15.17 3.04-3.65 6.08-13.06 0.91-16.69-5.17-3.65-8.8 0.91-14.26 8.5-5.46 7.6-16.69 11.84-27.62 6.66-10.93-5.17-11.54-22.76-11.54-22.76l-15.49 0.91s-2.43 15.17-9.41 20.02-23.67 6.08-30.65-4.56c-3.07-4.72-7.53-11.84-14.52-7.28z" stroke-width="0"/><g stroke-width="0"><path d="m335.79 62.24-2.24-12.14 3.82-18.13s12.56 0.65 19.14 1.08c6.58 0.42 20.4-2.35 30.96 5.15 11.99 8.52 16.24 23.45 8.53 43.32s-26.53 33.39-40.79 32.35c-7.06-0.51-7.75-3.44-13.1-4.13-4.33-0.56-4.55 1.7-11.75-0.15-7.2-1.86-12.83-5.82-15.55-11.07s20.99-36.28 20.99-36.28z" fill="#dc0d28"/><path d="m320.97,32.29c-12.21,6.59-20.87,23.96-16.53,45.26,3.85,18.96,14.67,26.35,14.67,26.35,0,0,20.96,2.86,36.98-1.99s32.72-15.57,36.34-33.39c3.63-17.82-4.43-25.74-5.39-26.19s-5.63,1.33-10.31.51c-4.67-.82-8.08-2.69-8.08-2.69l-15.68,1.91-13.08-6s-.05-2.01,1.6-2.48c3.42-.98,9.31,3.07,11.97,3.48s5.64-2.65,5.64-2.65c0,0-6.02-1.88-8.05-2.82-2.04-.92-15.83-7-30.08.69Z" fill="#ff5117"/><path d="m354.81,39.29c-3.84-.6-13.3-6.25-14.79-3.64-1.58,2.77,5.2,8.26,14.57,9.49,9.77,1.29,16.86-2.82,15.92-6-.93-3.18-8.35,1.29-15.7.15Z" fill="#8d1d0a"/><path d="m349.1,20.7s-1.59-.41-2.36-.92-1.98-.73-1.58-2.17c.66-2.42,4.31-4.29,5.16-4.59,1.61-.55,4.08.19,4.91,1,1.03,1.01-.13,3.67-.13,3.67,0,0,2.93,7.2,2.73,11.21-.18,3.65-.08,14.45-3.55,14.42-3.17-.03-.28-7.72-1.17-11.94-.54-2.53-1.47-5.31-2.48-7.28-.98-1.88-1.52-3.39-1.52-3.39Z" fill="#513630"/><path d="m396.24 20c0.46-0.52-0.1-1.26-2.87-1.91s-17.7-5.18-28.5 3.8c-7.76 6.45-8.15 13.22-8.15 13.22l5.61 1.41 33.91-16.52z" fill="#2f7c31"/><path d="m375.41,26.75c5.84-2.49,21.05-7.42,21.05-7.42,0,0-.4,1.94-1.59,3.46s-5.77,9.3-18.67,13.02c-12.11,3.48-19.13.59-19.52-.54-.37-1.13,9.09-4.4,18.73-8.52Z" fill="#709f19"/><path d="m334.05 37.53c-1.6-3.72-7.28-3.92-13.54 1.65-8.06 7.16-10.01 18.47-5.84 20.03 4.14 1.54 1.25-3.53 9.57-10.72 6.38-5.51 11.83-6.22 9.8-10.95z" fill="#ffd2b1"/></g><g stroke-width="0"><path d="m116.33 106.55c10.97 23.02 33.04 30.45 63.06 20.41 30.02-10.05 36.08-28.45 38.06-37.58 2.26-10.51-3.54-54.13-53.74-47.19-19.18 2.65-32.04 10.52-39.74 19.27-13.74 15.59-12.23 35.46-7.64 45.1z" fill="#ff8e00"/><path d="m188.79 17.54c-0.53-1.13-6.09-3.8-16.92-0.79s-17.07 10.48-18.34 18.35c-0.98 6.07-1.12 10.82-1.12 10.82l6.75-1.67 23.97-19.17 5.66-7.54z" fill="#5c6a23"/><path d="m169.47 30.94c6.43-5.16 19.33-13.4 19.33-13.4s-0.53 6.39-3.68 13.18c-3.16 6.79-9.36 14.86-21.45 16-4.94 0.47-8.99-1.43-8.99-1.43s5.12-6.58 14.8-14.35z" fill="#767e3a"/><path d="m139.69 35.44c-0.16 1.56 2.3 1.88 4.37 3.65 3.8 3.25 5.83 9.01 5.83 9.01s-4.87 2.31-3.15 6.67c1.52 3.87 5.6 4.26 9.64 2.83 4.41-1.55 4.97-5.43 4.05-7.53-1.42-3.24-5.33-3.31-5.33-3.31s-2.2-7.8-4.03-11.45-2.81-4.39-4.11-4.48-7.06 2.6-7.26 4.61z" fill="#5c6a23"/><path d="m127.57,101.6c3.24-.1,4.6-4.29,5.66-11.81.55-3.93,2.64-10.18,3.79-12.87,2.46-5.75,5.93-12.03,1.61-14.61-4.62-2.76-12.64,4.7-15.61,16.09s-.18,23.36,4.54,23.21Z" fill="#ffe265"/><path d="m171.83,51.62c.19,2.08,1.6,3.4,3.05,3.02,1.74-.45,2.01-2.37,1.46-4.04-.45-1.35-1.65-1.93-2.84-1.63-1.2.31-1.78,1.4-1.66,2.65Z" fill="#ff6110"/><path d="m186.11,55.83c-.78,1.78,0,4.39,1.94,4.83,2.19.49,3.55-1.65,3.72-3.13.13-1.17-.17-2.88-1.69-3.53-1.83-.78-3.35.41-3.98,1.84Z" fill="#ff6110"/><path d="m195.74,58.71c.25,1.72,1.57,3.32,3.37,2.98s2.37-2.4,2.04-3.66c-.41-1.59-1.45-2.61-2.98-2.65-1.54-.06-2.66,1.78-2.43,3.34Z" fill="#ff6110"/><path d="m199.52,66.3c-1.32-.15-3.4,1.09-3.22,4.04.15,2.39,1.6,4.25,3.32,4.08,2.3-.24,3.13-2.38,2.84-4.36-.32-2.23-1.41-3.57-2.94-3.75Z" fill="#ff6110"/><path d="m198.57,86.64c2.02.66,2.06,3.03,1.28,4.69-.85,1.84-2.78,2.68-4.1,2.05-1.31-.63-1.73-2.71-.84-4.57s2.57-2.54,3.65-2.18Z" fill="#ff6110"/><path d="m182.65 108.72c1.11 1.1 0.78 3.13-0.13 4.46-0.73 1.06-2.98 2.71-4.77 1.4-1.48-1.08-1.28-2.83-0.09-4.62s3.75-2.45 4.99-1.23z" fill="#ff6110"/></g><g stroke-width="0"><path d="m44.13 149.63c-5.24 5.92-1.53 13.89-1.53 13.89l-14.32 9.34s-2.14 0.97-4.35 3.95c-1.62 2.18 14.03 22.73 14.03 22.73s2.55-0.47 4.63-1.37c2.14-0.93 4.76-3.36 4.76-3.36l16.95 17.25s1.26 1.94 3.87 2.55c3.58 0.84 4.91-0.53 4.91-0.53l22.1 5.45s1.11 1.24 2.22 2.05 2.92 1.55 2.92 1.55l17.97-19.35s-1.18-1.8-2.21-2.89c-1.57-1.67-3.75-2.76-3.75-2.76l-0.66-21.33s-1.31-0.84-4.89-1.47c-3.84-0.68-6.56-2.22-6.56-2.22l-5.34-18.56 1.71-2.22s3.33-6.15-1.31-7.67-15.94-2.42-15.94-2.42l-2.83-9.18s-1.45 1.48-2.46 3.19-1.78 3.88-1.78 3.88l-16.85 5.34-2.18 0.11s-4.59-1.06-9.09 4.04z" fill="#4c186e"/><path d="m33.79,159.28s7.64-1.25,7.53-2.17c-.1-.9-.33-11.13-.18-11.13.1,0,4.23,1.17,7.89,2.18,4.63,1.28,6.96,2.13,6.96,2.13l1.91-6.76s-3.53-1.21-8.47-2.83c-3.97-1.29-8.4-2.54-9.04-3.29-1.11-1.31-3.9-5.24-4.23-8.76-.6-6.56,2.66-9.53,7.1-9.73,4.33-.19,6.45,2.32,8.07,2.42,1.61.1,3.22-2.65,2.22-5.65-1.61-4.84-9.58-7.28-16.34-5.04-9.48,3.13-10.39,14.92-8.98,20.07,1.93,7.05,5.34,11.19,5.34,11.19l.21,17.36Z" fill="#727f37"/><path d="m60.43,138.3c-6.46,3.13-11.62,15.07-2.62,23.2,7.37,6.66,17.55,3.02,20.68-2.32,2.71-4.63,3.63-12-.41-16.85s-10.87-7.32-17.65-4.03Z" fill="#a363b1"/><path d="m76.5 133.07s2.17-2.36 5.87-3.33c3.08-0.81 7.47-1.03 12.3 2.23 5.06 3.42 6.08 9.14 5.43 13.88-0.68 4.9-3.42 9.12-6.19 9.89-5.45 1.52 2.72-1.41 1.31-4.03s-9.25 1.49-15.74-6.35c-4.84-5.84-2.98-12.28-2.98-12.28z" fill="#a363b1"/><path d="m81.31,164.52c-2.57,7.69,1.11,16.34,10.19,18.35,9.08,2.02,14.53-3.94,16.74-9.18,2.22-5.25.2-15.63-8.77-18.35-8.98-2.72-15.95,2.53-18.16,9.18Z" fill="#a363b1"/><path d="m54.58,177.53c-2.31,7.31,1.82,14.02,6.86,16.55,6.39,3.2,15.94.41,18.56-7.26,2.42-7.06.6-15.13-7.06-17.96-7.67-2.83-15.84.7-18.35,8.67Z" fill="#a363b1"/><path d="m27.94 164.93c-2.18 6.54 0 15.33 8.88 17.96 8.88 2.62 14.64-2.92 16.55-9.38 1.52-5.14 1.21-13.52-8.17-17.04-9.15-3.45-15.34 2.71-17.26 8.46z" fill="#a363b1"/><path d="m90.28,185.87c-2.96.57-4.57,3.27-5.9,6.44-2.3,5.44-4.7,6.92-5.6,8.89-1.15,2.53,2.17,4.68,3.53,5.44,2.32,1.29,11.22,2.77,15.1-4.91,4.96-9.83-2.77-16.71-7.13-15.87Z" fill="#a363b1"/><path d="m106.95,199.68c.07,1.06,11.68.52,11.53-11.25-.12-9.03-6.88-11.66-6.88-11.66,0,0-4.43,3.27-4.28,8.88.16,5.62,1.24,4.77.9,9.35-.11,1.43-1.31,4.29-1.28,4.68Z" fill="#a363b1"/><path d="m118.33,203.77s-7.79.33-12.31,6.48c-4.21,5.73-5.69,12.87-5.69,12.87,0,0,10.74,5.64,17.32-1.61,7.37-8.12.68-17.74.68-17.74Z" fill="#a363b1"/><path d="m73.03,210.16c-1.41.8-2.27,6.7.53,11.17,1.49,2.36,4.19,4.49,8.17,5.09,5.45.83,9.21-1.34,11.73-4,2.9-3.06,3.88-6.99,3.02-8.5-1.61-2.84-5.81,1.01-12.94-.07-7.13-1.07-8.06-5.07-10.51-3.69Z" fill="#a363b1"/><path d="m48.66,191.31c-1.26.26-5.71,5.13-5.29,11.3.19,2.81.92,5.72,3.89,8.76,4.08,4.18,9.91,4.64,13.82,3.54,3.58-1.02,6.2-3.35,6.28-5.36.09-2.46-.27-4.96-4.6-6.74-1.96-.81-5.21-1.69-8.36-4.29-5.13-4.26-4.46-7.47-5.74-7.2Z" fill="#a363b1"/><path d="m24.05 176.75s-2.35 2.73-3.13 6.82c-0.53 2.84-0.72 6.08 1.57 9.78 5.32 8.59 15.53 6.17 15.53 6.17s4.59-3.61 2.68-8.25c-0.6-1.48-1.9-2.15-4.7-3.26-4.81-1.92-7.67-4.91-9.12-6.9-1.45-1.98-2.83-4.36-2.83-4.36z" fill="#a363b1"/><path d="m93.59,158.87c-1.45-1.64-6.29-.23-8.66,5.29-1.81,4.19-1.54,10.69,2.76,11.42,4.87.83,2.07-6.04,4.06-9.96,1.29-2.54,3.52-4.82,1.84-6.74Z" fill="#dabcf3"/><path d="m66.59,171.69c-2.07-2.3-6.29.46-8.12,5.21-2.59,6.69.78,10.04,2.38,9.74,2.84-.53,2.6-3.98,3.98-7.43,1.09-2.7,3.77-5.28,1.76-7.51Z" fill="#dabcf3"/><path d="m82.16,131.79c-2.14-.4-2.77,2.08-2.77,3.72s.34,3.37,1.99,3.46c1.55.09,2.25-1.47,2.51-3.72.22-1.9-.34-3.2-1.73-3.46Z" fill="#dabcf3"/><path d="m64.64,140.54c-2.65-1.46-6.76,1.35-7.71,7.7-.81,5.47,1.31,9.05,4.31,8.35,3.38-.79,2.47-5.79,3.27-8.61.85-2.94,2.55-6.09.12-7.43Z" fill="#dabcf3"/><path d="m37.38,160.35c-3.41-.78-5.67,2.6-6.21,6.05-.43,2.72.12,6.56,2.84,7.13,2.92.61,5.29-2.92,5.67-5.75.38-2.84.38-6.82-2.3-7.43Z" fill="#dabcf3"/><path d="m24.72,184.28c-1.68.2-2.3,2.99-1.46,5.29.85,2.3,1.84,3.37,3.6,2.92,1.97-.51.61-3.29.08-4.91-.54-1.6-.31-3.52-2.23-3.29Z" fill="#dabcf3"/><path d="m48.49,197.13c-2.23.23-3.16,3.15-2.49,6.42.54,2.63,2.5,5.5,4.95,4.57,2.52-.95.47-3.95-.17-6.35-.64-2.39-.23-4.85-2.29-4.63Z" fill="#dabcf3"/><path d="m91.09,193.39c-1.82-1.38-4.05.04-5.61,2.33s-1.61,4.22-.09,5.44c1.68,1.35,4.22.27,5.59-1.9,1.17-1.86,2.02-4.41.11-5.87Z" fill="#dabcf3"/><path d="m75.81,213.91c-1.89.15-2.46,1.98-1.92,4.17.44,1.79,1.84,2.94,3.24,2.37,1.2-.5,1.95-2.05,1.24-4.4-.52-1.69-1.59-2.22-2.56-2.14Z" fill="#dabcf3"/></g><g stroke-width="0"><path d="m309.4,151.76c-.56-.56-17.24-.36-17.24-.36l-38.21,42.44s-1.33,12.49-.11,17.73c.69,2.95,2.1,8.25,6.38,14.55,2.93,4.31,5.23,6.18,5.23,6.18l22.81,9.86,38.13,3.92,22.33-14.49s1.66-6.66,1.07-11.52c-.59-4.87-1.55-8.55-1.43-11.76.12-3.21,2.02-16.1-.99-25.34-2.67-8.15-10.53-19.45-20.38-25.27-9.86-5.82-17.58-5.94-17.58-5.94Z" fill="#ff2a23"/><path d="m303.58 249.6c5.4 1.31 15.88 6.11 20.39 6.8 4.67 0.71 11.32 0.78 18.36-4.56 6.29-4.77 9.19-9.61 9.54-13.72 0.5-5.75-0.51-10.84-0.82-13.27-0.3-2.43-1.67-7.73-1.67-7.73s-3.9 8.64-8.78 12.7c-4.87 4.06-16.64 9.44-28.31 9.84-11.67 0.41-19.48 0.71-27.7-1.32s-22.18-9.25-22.18-9.25 4.9 7.3 14.48 12.7c7.23 4.08 11.58 5.12 14.51 5.78 4.55 1.04 8.02 1.02 12.18 2.04z" fill="#dc0d27"/><path d="m273.14 167.93s-19.98 29.84-20.16 34.81c-0.2 5.68 0.97 9.07 0.97 9.07s4.06-0.15 8.02-2.7c1.84-1.18 3.22-2.35 3.22-2.35s5.63 7.89 7.45 7.99 6.67-3.41 8.8-5.94c2.13-2.54 3.55-7.21 3.55-7.21s3.29 1.49 10.19 1.28c6.9-0.2 9.02-0.82 9.53-1.32 0.51-0.51 1.19-3.71 1.79-6.25 0.61-2.54 0.67-6.16 0.67-7.69s-0.43-3.83-0.43-3.83 5.44-2.58 7.98-5.02c2.54-2.43 3.76-3.65 4.16-4.47 0.41-0.81-1.12-4.77-2.84-7.4s-4.06-4.47-4.06-4.47 3.45-2.74 4.87-4.26 3.27-3.88 3.27-3.88-2.96-1.29-6.51-2.1-10.65-1.72-10.65-1.72l-29.82 17.46z" fill="#dc0d27"/><path d="m257.04,187.18c-.28.19-8.84,13.59-8.93,14.82-.1,1.24-.3,3.22,1.04,3.89.95.48,1.71-.38,2.37-.95s1.99-1.42,3.51-2.19c1.52-.77,4.13-1.28,5.98-2.37,2.75-1.62,5.23-5.51,5.23-5.51l6.74,9.69-2.4,5.97s1.69,2.03,2.03,2.29c.61.46,4.27-2.28,6.17-7.12s2.37-11.02,2.37-11.02c0,0,3.8,2.66,7.51,3.43,3.71.76,11.3.38,11.78-.19.43-.51.68-7.75.3-10.98s-2.16-7.5-2.16-7.5c0,0,3.85.61,8.42-.62s7.98-3.89,8.17-4.94-2.61-3.72-2.61-3.72l-11.27-3.98-1.36-3.4s5.76-1.69,8.77-5.25c2.17-2.58,6.06-5.85,6.06-7.38s-2.45-1.18-2.45-1.18l-20.9,8.36-34.39,29.86Z" fill="#759937"/><path d="m267.21 161.48c6.14-5.64 12.34-10.28 22.33-12.87 9.95-2.59 16.9-1.31 18.52-1.02 1.62 0.28 6.48 1.17 6.1 1.68-0.17 0.22-3.72 1.91-7.24 4.18-3.52 2.28-5 3.02-5.89 3.51-1.32 0.74-3.23 1.76-3.15 2.95 0.12 1.62 2.3 1.71 4.67 2.95s5.32 3.13 7.51 5.04 3.29 2.67 3.59 3.42c0.33 0.82-6.82 4.66-11.67 4.56s-7.12-2.28-8.27-0.57c-1.14 1.71 2.47 5.98 3.43 10.74s0.95 9.51 0.95 9.51-7.28 0.54-10.64-0.67c-5.07-1.83-5.7-5.73-8.46-5.23-3.73 0.68-0.4 7.09-3.02 14.75-2.34 6.85-4.32 7.38-4.32 7.38s-3.22-3.32-4.37-5.13-2.46-2.74-2.74-6.64c-0.28-3.89 0.19-8.84-1.71-9.03s-2.37 3.8-4.56 5.8c-2.19 1.99-5.51 3.05-7.03 4.27-1.52 1.24-3.09 3.43-3.09 3.43s-1.09-6.57 1.86-15.4c2.95-8.84 7.8-18.96 17.21-27.61z" fill="#98b715"/><path d="m255.71 142.67c0.24-0.9 4.4-3.43 6.39-3.33s1.6 0.66 1.88 1.42-1.14 7.98 1.14 12.16c2.05 3.77 3.89 5.6 7.98 5.51 4.09-0.1-5.13 12.07-5.13 12.07s-7.89-4.37-11.02-12.45-1.62-13.96-1.24-15.38z" fill="#98b715"/><path d="m336.72,218.65c-1.8.09-3.45,2.54-2.51,5.87.78,2.75,2.75,3.78,4.19,3.59,1.44-.18,2.75-2.39,2.22-5.51-.42-2.36-1.51-4.07-3.9-3.95Z" fill="#ffebca"/><path d="m334.33,191.3c-2.46.63-2.22,3.86-1.67,5.62.54,1.76,2.03,2.94,3.65,2.62s2.58-2.88,2.15-4.84c-.41-1.97-1.85-3.99-4.13-3.41Z" fill="#ffebca"/><path d="m321.34,168.48c-1.79,1.56-1.02,4.07.54,5.75,1.56,1.67,3.59,2.09,4.91,1.08s.9-4.55-.66-6.04c-1.56-1.5-3.42-1.98-4.79-.79Z" fill="#ffebca"/><path d="m312.64,188.85c-1.42,1.27-1.15,4.05.45,5.97s4.02,3.02,5.23,1.41c1.22-1.61.32-4.75-.95-6.42-1.28-1.67-3.52-2.05-4.73-.96Z" fill="#ffebca"/><path d="m312.66,192.58c1.61.96,3.75-2.42,2.12-3.56-1.75-1.24-4.14,2.35-2.12,3.56Z" fill="#fffeff"/><path d="m313.05,212.87c-1.31,1.63-.28,4.02.92,5.46,1.39,1.65,4.57,2.7,6.02,1.28,1.68-1.63.92-4.48-1.26-6.44-1.64-1.48-4.37-1.97-5.69-.3Z" fill="#ffebca"/><path d="m315.05,236.97c-.56,2.03.29,3.93,4.07,4.55,3.29.54,4.97-1.02,4.91-2.7-.04-1.14-1.31-3.06-4.43-3.59-2.5-.44-4.08,0-4.55,1.73Z" fill="#ffebca"/><path d="m289.66,229.01c-1.27,1.91.29,4.54,1.86,5.75,1.79,1.38,4.79,1.08,5.57-.6.78-1.67-.18-3.95-2.03-5.26-1.86-1.32-4.31-1.5-5.39.12Z" fill="#ffebca"/><path d="m269.25,217.34c-2.35,1.97-.65,4.92.84,6.04,1.67,1.26,3.78,2.15,5.62.54s.06-4.97-1.08-5.98c-1.13-1.01-3.58-2.09-5.38-.59Z" fill="#ffebca"/><path d="m270.93,217.39c-1.59-.3-3.42,2.81-1.44,3.95,1.84,1.06,3.65-3.53,1.44-3.95Z" fill="#fffffe"/><path d="m292.42,208c-1.25,1.88-.06,4.79,1.5,5.81s3.95,1.73,5.39-.12c1.44-1.86.6-4.25-1.08-5.62-1.67-1.38-4.49-2.04-5.81-.07Z" fill="#ffebca"/><path d="m294.58 207.52c-1.08-0.12-1.73 1.02-1.92 2.09-0.18 1.08 0.12 2.15 1.26 2.39s1.8-1.44 1.86-2.09c0.06-0.66-0.06-2.28-1.2-2.39z" fill="#fff"/></g><g stroke-width="0"><path d="m415.37,137.67c2.29,1.03,78.14,34.73,78.14,34.73,2.13.95,2.29,2.45,1.58,9.79-.79,8.29-1.5,29.83-31.73,33.86-19.42,2.53-44.12-3.39-55.96-21.47-14.52-22.18-1.1-50.12,1.89-54.62,1.89-2.76,3.79-3.31,6.08-2.29Z" fill="#6ea517"/><path d="m493.51,172.4c-.24-.16-72.61-32.2-78.06-34.65-10.26,13.1-20.84,48.22,4.18,64.17,26.52,16.97,62.11-8.05,73.87-29.52Z" fill="#f0f4c3"/><path d="m490.51,170.98c-.24-.16-68.43-30.31-73.56-32.6-9.63,12.23-18.86,46.65,4.5,61.56,24.78,15.94,58.09-8.84,69.06-28.97Z" fill="#f0f4c3"/><g fill="#b0e244"><path d="m441.97,155.66l-28.97,8.37c-1.97.63-3.47,2.21-3.95,4.18-1.5,6.71.63,18.39,7.02,23.52,2.76,2.13,6.79,1.42,8.52-1.66l19.18-31.73c1.03-1.34.39-3.31-1.82-2.68Z"/><path d="m453.26,157.95s11.52,23.76,12.63,26.05,4.97,3.71,7.81,2.21c8.45-4.42,12.23-9.79,15.15-15.94-7.02-3.08-33.46-14.84-33.46-14.84-1.89-.87-3.16.47-2.13,2.53Z"/><path d="m446.47,159.45c-1.26,2.13-17.68,30.47-19.18,32.91-1.5,2.53-.55,5.92,2.13,7.26,9.71,5.13,24.39.32,31.25-5.52,1.74-1.5,3.55-4.03,2.53-6.47s-11.21-26.44-12.08-28.26c-.95-2.13-3.24-2.21-4.66.08Z"/></g><path d="m438.81,159.3c-1.1.32-7.97,2.37-8.76,2.68-1.1.39-1.74,1.34-1.5,1.97.24.71,1.34.87,2.45.47.63-.24,5.6-3.08,7.5-4.1-2.45,1.89-8.05,7.42-8.76,8.13-1.1,1.18-1.34,2.68-.63,3.39.79.71,2.29.39,3.39-.79.95-1.03,6.71-10.1,7.18-10.97s.32-1.1-.87-.79Z" fill="#f0f4c3"/><path d="m446.79,172.24c0-1.74,1.1-8.13,1.42-9.71.32-1.26,1.18-1.42,1.42.39s1.34,7.66,1.34,9.31-.95,2.6-2.13,2.6c-1.1,0-2.05-.87-2.05-2.6Z" fill="#f0f4c3"/><path d="m460.68,164.66c-.95-1.42-2.6-3.87-3.24-4.81-.55-.95.08-1.66,1.42-.71,1.34.95,3.16,2.29,4.26,3.16,1.26,1.03,1.5,2.37.63,3.16s-2.13.63-3.08-.79Z" fill="#f0f4c3"/><ellipse transform="translate(-43.25 235.27) rotate(-27.1)" cx="466.51" cy="207.37" rx="2.68" ry="1.82" fill="#b0e244"/><ellipse transform="translate(-39.56 271.47) rotate(-30.64)" cx="475.67" cy="207.93" rx="2.68" ry="1.82" fill="#b0e244"/><ellipse transform="translate(-23.74 329.4) rotate(-37.16)" cx="478.14" cy="200.02" rx="2.68" ry="1.82" fill="#b0e244"/><path d="m443.08,149.9c-6.55-2.92-19.26-8.45-23.36-10.26-2.84,1.74-7.66,9-8.84,16.73-.47,2.84,1.34,4.66,4.18,3.87,0,0,26.6-7.34,27.86-7.66,1.26-.39,1.58-2.05.16-2.68Z" fill="#b0e244"/></g></svg>